PathFileType	4	(X/Y/Z)	Run_500 03
DataRate	CameraRate	NumFrames	NumMarkers	Units	OrigDataRate	OrigDataStartFrame	OrigNumFrames
100	100	6	42	mm	100	11	128
Frame#	Time	RASI			LPSI			RPSI			RTH1			RTH2			RTH3			LTH1			LTH2			LTH3			RTB1			RTB2			RTB3			LTB1			LTB2			LTB3			RCAL			RTOE			RMT5			LCAL			LTOE			LMT5			LACR			RACR			CLAV			C7			RUA1			RUA2			RUA3			RLEL			RMEL			LUA1			LUA2			LUA3			LLEL			LMEL			RFAsuperior			RFAradius			RFAulna			LFAsuperior			LFAradius			LFAulna			LASI		
		X1	Y1	Z1	X2	Y2	Z2	X3	Y3	Z3	X4	Y4	Z4	X5	Y5	Z5	X6	Y6	Z6	X7	Y7	Z7	X8	Y8	Z8	X9	Y9	Z9	X10	Y10	Z10	X11	Y11	Z11	X12	Y12	Z12	X13	Y13	Z13	X14	Y14	Z14	X15	Y15	Z15	X16	Y16	Z16	X17	Y17	Z17	X18	Y18	Z18	X19	Y19	Z19	X20	Y20	Z20	X21	Y21	Z21	X22	Y22	Z22	X23	Y23	Z23	X24	Y24	Z24	X25	Y25	Z25	X26	Y26	Z26	X27	Y27	Z27	X28	Y28	Z28	X29	Y29	Z29	X30	Y30	Z30	X31	Y31	Z31	X32	Y32	Z32	X33	Y33	Z33	X34	Y34	Z34	X35	Y35	Z35	X36	Y36	Z36	X37	Y37	Z37	X38	Y38	Z38	X39	Y39	Z39	X40	Y40	Z40	X41	Y41	Z41	X42	Y42	Z42	

11	  0.110000	800.587054	1001.585517	-201.599519	600.637968	1087.740924	-341.608212	616.557132	1086.633531	-258.382231	714.690883	873.838300	-128.788153	726.629394	729.392655	-137.444469	628.504045	647.042403	-144.678792	716.254723	897.781442	-502.066114	820.070677	806.065051	-490.585614	787.657465	655.388923	-458.109149	486.877990	491.994929	-201.908772	387.714245	557.290285	-170.280480	292.709043	535.023104	-237.584763	908.858210	456.650141	-395.817122	856.467720	363.934733	-443.100525	934.258822	253.395054	-372.838380	199.803289	679.924773	-279.914837	111.704018	462.765914	-273.431965	 79.256889	508.081863	-200.105741	843.090274	 98.776316	-307.781987	1067.528058	106.213173	-365.620422	1025.829432	 50.761847	-426.566189	714.540460	1544.907627	-484.184548	767.129292	1513.735397	-149.258724	811.831679	1495.398371	-309.246120	673.033447	1566.186254	-320.256818	733.376968	1401.095035	-61.473104	660.552637	1323.756918	-69.897501	718.022387	1287.541495	-26.070645	714.156824	1193.094925	  4.110570	665.296863	1172.162674	-58.625624	631.138763	1487.038097	-579.931496	544.697076	1440.446224	-570.603043	567.132876	1401.615693	-640.942904	526.034249	1333.095557	-689.972887	469.684028	1328.158334	-636.726746	771.724034	1134.846359	 -5.680511	934.221345	1056.645730	-110.606209	897.207639	1009.360757	-72.977801	556.890124	1207.320360	-676.426517	624.304805	1091.931796	-586.549336	566.353906	1071.988396	-613.884657	764.593996	1021.335896	-445.922101	
12	  0.120000	799.791650	995.646548	-202.948847	599.676897	1079.796252	-341.549229	614.404308	1079.293507	-258.008348	719.265633	866.688036	-127.785690	739.218774	721.692967	-135.447914	645.530144	635.386374	-140.668063	713.925355	888.365671	-501.736456	816.300159	797.050799	-491.613671	781.672483	645.459318	-459.638895	508.651915	488.166647	-199.339553	412.708009	558.190147	-167.544348	317.539023	542.034066	-235.821859	896.122353	441.819359	-395.263806	840.340838	350.938903	-442.850962	908.569998	237.745741	-367.950122	231.452130	692.062793	-277.646822	135.304684	478.922814	-271.956827	102.991270	525.344696	-196.259676	803.614505	 92.153901	-302.770021	1032.198713	 88.807740	-360.231037	983.274406	 47.351261	-426.863544	715.079672	1535.144680	-487.266912	762.474650	1506.841781	-149.984855	810.942822	1488.144320	-310.283797	671.811241	1557.258891	-323.701615	726.730796	1395.131651	-62.814407	653.812412	1318.522954	-72.166504	709.255971	1281.844382	-26.101693	704.184722	1188.135545	  4.920128	656.843462	1167.734317	-59.062383	635.504084	1472.819527	-585.502031	550.272985	1424.296010	-578.439027	576.384354	1384.845523	-647.017183	539.612709	1315.270469	-696.886059	481.937779	1307.847541	-645.242635	758.094144	1126.245248	 -2.314708	917.324922	1035.611550	-102.295972	876.443928	991.547578	-64.864385	576.348051	1191.575630	-680.985737	647.824226	1081.115706	-588.412885	591.388933	1058.221080	-616.542858	763.831378	1013.804139	-446.643883	
13	  0.130000	798.664461	989.076687	-204.449465	597.855507	1072.089080	-342.184752	611.699656	1071.792444	-258.213452	723.788285	858.633808	-127.246426	752.177815	714.269227	-133.610022	663.478961	623.764812	-136.967306	711.186735	879.586326	-501.785698	811.607277	787.870738	-491.253945	775.542413	636.380971	-460.886883	532.409508	483.833666	-196.924320	439.259651	557.514140	-164.472969	344.194810	546.927427	-233.739359	882.721771	428.540447	-392.779793	822.984533	340.348543	-440.500785	878.914447	224.606198	-360.305779	264.281632	701.243013	-274.406520	161.285602	491.572705	-269.865998	129.895016	538.611417	-192.446837	759.979668	 86.044334	-296.785270	991.511333	 76.823423	-354.999619	937.725965	 46.484516	-426.029496	716.215811	1525.166755	-490.723617	757.817505	1499.707392	-151.057082	810.550629	1480.134405	-311.210893	670.539199	1547.876852	-327.368118	719.727691	1388.991025	-64.238425	646.818579	1313.020657	-74.741968	699.915303	1276.123328	-25.999033	693.298142	1182.746846	  5.586466	647.146512	1163.187165	-59.254364	640.917937	1457.975556	-591.148817	556.977111	1406.931269	-586.220081	587.202669	1367.648309	-653.409549	554.804893	1296.994321	-703.579076	495.255126	1286.840871	-653.564922	743.599181	1117.458966	  0.984339	899.323967	1014.767849	-93.376610	854.631586	974.058619	-56.374360	597.364924	1175.888447	-685.123108	672.271639	1070.759169	-589.885873	617.756390	1044.578708	-618.971714	762.498525	1005.795836	-447.124368	
14	  0.140000	796.678544	981.620642	-206.415667	594.582149	1064.755638	-343.452125	607.922899	1064.098756	-258.888002	728.493901	850.095423	-127.286063	765.621659	707.954283	-132.133146	683.098092	613.003384	-133.747498	707.195413	872.284818	-502.356921	805.513982	779.106978	-489.438418	768.847645	628.803374	-461.517751	559.233764	479.085366	-195.067075	468.253418	554.744112	-161.024747	373.430509	548.638934	-231.196459	867.944956	417.731505	-388.427835	802.962781	333.570413	-436.163916	844.760537	215.490623	-350.800118	298.159257	705.978883	-269.713101	190.526129	498.603666	-266.927210	160.745171	545.491359	-188.481203	712.135399	 82.222786	-289.851374	944.851745	 71.511993	-350.147562	888.861755	 48.125352	-423.471022	718.194177	1515.004026	-494.762079	753.247982	1492.417280	-152.568808	810.917206	1471.394904	-311.755128	669.341218	1538.357329	-331.379184	712.382030	1382.745588	-65.722805	639.443839	1307.177911	-77.596106	689.790432	1270.536709	-25.894725	680.978782	1177.031122	  5.957855	635.903844	1158.535557	-59.403169	647.840032	1442.659800	-596.763159	565.413232	1387.992621	-593.843915	600.140699	1350.224090	-660.048084	572.389500	1278.363045	-709.933210	510.482791	1265.159544	-661.788649	727.687901	1108.771324	  4.140324	879.593105	994.661850	-83.605794	831.293365	957.464049	-47.284363	620.670798	1160.509290	-688.537367	698.060178	1061.292886	-590.397088	646.181471	1031.590536	-620.920082	760.186863	996.753314	-448.006380	
15	  0.150000	793.378806	973.665678	-208.921936	589.763271	1058.299374	-344.408865	602.958689	1056.619019	-259.343383	733.655509	842.824545	-127.665725	779.659782	704.060354	-131.336999	704.922272	604.703160	-131.075311	701.340836	867.020323	-503.077220	798.169739	771.793710	-487.144908	760.885678	622.803235	-461.398677	589.107197	474.675392	-194.334327	499.614163	550.489701	-157.593641	404.786643	547.312469	-228.365074	850.885979	409.088920	-383.923015	779.339891	330.109035	-431.770081	808.267952	210.132004	-342.793729	331.339830	706.365616	-263.767294	222.407508	499.405475	-263.366834	194.131297	545.251820	-184.060832	663.243617	 82.197684	-283.131479	895.633115	 70.142373	-346.015337	838.715974	 50.200627	-419.667902	720.834314	1505.100405	-499.194682	748.968070	1485.503684	-154.327317	811.873504	1462.802949	-311.616924	668.569875	1529.862494	-335.586611	705.083028	1376.817448	-67.176327	631.716011	1301.376341	-80.438995	679.085713	1265.519992	-26.198253	667.237762	1171.767583	  5.882736	623.761081	1154.156351	-60.062155	655.877478	1427.937788	-601.919930	575.606707	1368.387224	-601.018337	614.560239	1333.556923	-666.360253	592.209730	1260.224326	-715.781359	528.094628	1243.648866	-670.079220	710.322552	1101.068846	  7.049408	858.000074	976.200796	-73.215557	806.514002	942.642724	-37.614962	646.128621	1146.075897	-690.992014	725.101610	1053.280860	-589.342995	676.709887	1020.199555	-621.986860	756.879661	986.499301	-450.184736	
16	  0.160000	788.935129	966.236765	-211.204666	584.102586	1053.744937	-344.125680	597.454565	1050.301653	-259.112682	739.011474	838.489548	-128.099814	794.638469	703.787907	-131.650368	729.146609	600.420143	-129.073291	694.164401	863.524114	-503.232474	790.096923	766.336445	-485.226215	750.855992	617.783510	-460.774702	621.288934	471.606492	-195.115819	532.397419	545.730064	-154.881125	437.168508	543.663477	-225.702870	830.519557	401.301444	-380.613584	752.476668	327.823885	-428.921558	771.124008	206.732714	-338.294229	361.335319	703.109566	-257.233593	255.915288	494.102406	-259.627738	228.444659	537.888420	-179.061092	615.811274	 85.113968	-278.229440	847.129250	 69.480757	-343.052824	789.438102	 51.077197	-416.120001	723.777000	1496.245406	-503.389116	745.202369	1479.730409	-156.034071	812.846892	1455.441462	-310.800426	668.574980	1523.646219	-339.558526	698.247145	1371.884151	-68.526090	623.788765	1296.555369	-83.139433	668.179015	1261.713192	-27.313648	652.542137	1168.075514	  5.276064	611.565518	1150.873869	-61.615695	664.125398	1415.157007	-606.041284	587.223872	1349.833791	-607.073039	629.317190	1318.954295	-671.566006	613.591051	1243.899755	-720.694661	548.035966	1223.529626	-678.149842	692.018478	1095.501601	  9.592640	834.689438	960.327050	-62.751381	780.589051	930.571239	-27.663058	673.195739	1133.668107	-692.206365	753.106023	1047.596005	-586.433952	708.971712	1011.422263	-621.610796	753.092870	975.818944	-453.320633	
